<?xml version="1.0" encoding="UTF-8"?>
<svg xmlns="http://www.w3.org/2000/svg" width="1280" height="800" viewBox="0 0 1280 800">
  <rect width="1280" height="800" fill="#f9fafb"/>
  
  <rect x="0" y="0" width="240" height="800" fill="#1a3a2a"/><rect x="0" y="0" width="240" height="64" fill="#166534"/><text x="20" y="38" font-family="Arial,sans-serif" font-size="15" font-weight="bold" fill="#ffffff">🌿 BDE Farm Trac</text><text x="20" y="96" font-family="Arial,sans-serif" font-size="13" fill="#9ca3af">▣  Dashboard</text><text x="20" y="142" font-family="Arial,sans-serif" font-size="13" fill="#9ca3af">⬡  Field Register</text><text x="20" y="188" font-family="Arial,sans-serif" font-size="13" fill="#9ca3af">🌿  Crop Records</text><rect x="8" y="210" width="224" height="38" rx="6" fill="#22c55e" opacity="0.25"/><rect x="0" y="212" width="4" height="34" fill="#22c55e"/><text x="20" y="234" font-family="Arial,sans-serif" font-size="13" fill="#ffffff">💧  Spray Records</text><text x="20" y="280" font-family="Arial,sans-serif" font-size="13" fill="#9ca3af">🧪  Fertiliser Use</text><text x="20" y="326" font-family="Arial,sans-serif" font-size="13" fill="#9ca3af">🐄  Livestock</text><text x="20" y="372" font-family="Arial,sans-serif" font-size="13" fill="#9ca3af">💊  Medicine Records</text><text x="20" y="418" font-family="Arial,sans-serif" font-size="13" fill="#9ca3af">↔  Movements</text><text x="20" y="464" font-family="Arial,sans-serif" font-size="13" fill="#9ca3af">£  Financial Records</text><text x="20" y="510" font-family="Arial,sans-serif" font-size="13" fill="#9ca3af">📊  Business Reports</text><text x="20" y="556" font-family="Arial,sans-serif" font-size="13" fill="#9ca3af">?  Help Centre</text><rect x="8" y="744" width="224" height="44" rx="6" fill="#166534" opacity="0.5"/><text x="20" y="772" font-family="Arial,sans-serif" font-size="11" fill="#9ca3af">🏡 Home Farm</text>
  
    <rect x="240" y="0" width="1040" height="64" fill="#ffffff" stroke="#e5e7eb" stroke-width="1"/>
    <text x="264" y="40" font-family="Arial,sans-serif" font-size="20" font-weight="bold" fill="#111827">Spray Application Records</text>
    <rect x="1120" y="16" width="128" height="32" rx="6" fill="#22c55e"/>
    <text x="1184" y="37" font-family="Arial,sans-serif" font-size="13" font-weight="bold" fill="#ffffff" text-anchor="middle">+ Add Record</text>
    <circle cx="1252" cy="32" r="18" fill="#dcfce7"/>
    <text x="1252" y="38" font-family="Arial,sans-serif" font-size="13" font-weight="bold" fill="#166534" text-anchor="middle">JD</text>
  
  <rect x="240" y="64" width="1040" height="736" fill="#f9fafb"/><rect x="256" y="80" width="280" height="36" rx="6" fill="#ffffff" stroke="#e5e7eb" stroke-width="1"/><text x="276" y="103" font-family="Arial,sans-serif" font-size="13" fill="#6b7280">🔍  Search spray records...</text><rect x="552" y="80" width="120" height="36" rx="6" fill="#ffffff" stroke="#e5e7eb" stroke-width="1"/><text x="612" y="103" font-family="Arial,sans-serif" font-size="13" fill="#6b7280" text-anchor="middle">Filter ▾</text><rect x="256" y="132" width="1008" height="40" fill="#f9fafb" stroke="#e5e7eb" stroke-width="1"/><text x="272" y="157" font-family="Arial,sans-serif" font-size="12" font-weight="bold" fill="#6b7280">DATE</text><text x="382" y="157" font-family="Arial,sans-serif" font-size="12" font-weight="bold" fill="#6b7280">FIELD</text><text x="522" y="157" font-family="Arial,sans-serif" font-size="12" font-weight="bold" fill="#6b7280">CROP</text><text x="652" y="157" font-family="Arial,sans-serif" font-size="12" font-weight="bold" fill="#6b7280">PRODUCT</text><text x="852" y="157" font-family="Arial,sans-serif" font-size="12" font-weight="bold" fill="#6b7280">TARGET</text><text x="1002" y="157" font-family="Arial,sans-serif" font-size="12" font-weight="bold" fill="#6b7280">RATE (L/ha)</text><text x="1102" y="157" font-family="Arial,sans-serif" font-size="12" font-weight="bold" fill="#6b7280">OPERATOR</text><text x="1212" y="157" font-family="Arial,sans-serif" font-size="12" font-weight="bold" fill="#6b7280">STATUS</text><rect x="256" y="172" width="1008" height="44" fill="#ffffff" stroke="#e5e7eb" stroke-width="0.5"/><text x="272" y="198" font-family="Arial,sans-serif" font-size="13" fill="#111827">12 Mar 2026</text><text x="382" y="198" font-family="Arial,sans-serif" font-size="13" fill="#111827">Field 4B</text><text x="522" y="198" font-family="Arial,sans-serif" font-size="13" fill="#111827">Winter Wheat</text><text x="652" y="198" font-family="Arial,sans-serif" font-size="13" fill="#111827">Roundup ProActive</text><text x="852" y="198" font-family="Arial,sans-serif" font-size="13" fill="#111827">Broadleaf weeds</text><text x="1002" y="198" font-family="Arial,sans-serif" font-size="13" fill="#111827">3.2</text><text x="1102" y="198" font-family="Arial,sans-serif" font-size="13" fill="#111827">J. Davies</text><rect x="1212" y="184" width="68" height="20" rx="10" fill="#dcfce7" opacity="0.2"/><text x="1218" y="198" font-family="Arial,sans-serif" font-size="11" fill="#166534">Complete</text><rect x="256" y="216" width="1008" height="44" fill="#f9fafb" stroke="#e5e7eb" stroke-width="0.5"/><text x="272" y="242" font-family="Arial,sans-serif" font-size="13" fill="#111827">10 Mar 2026</text><text x="382" y="242" font-family="Arial,sans-serif" font-size="13" fill="#111827">Field 7A</text><text x="522" y="242" font-family="Arial,sans-serif" font-size="13" fill="#111827">Oilseed Rape</text><text x="652" y="242" font-family="Arial,sans-serif" font-size="13" fill="#111827">Mavrik Aqua</text><text x="852" y="242" font-family="Arial,sans-serif" font-size="13" fill="#111827">Pollen beetle</text><text x="1002" y="242" font-family="Arial,sans-serif" font-size="13" fill="#111827">0.15</text><text x="1102" y="242" font-family="Arial,sans-serif" font-size="13" fill="#111827">J. Davies</text><rect x="1212" y="228" width="68" height="20" rx="10" fill="#dcfce7" opacity="0.2"/><text x="1218" y="242" font-family="Arial,sans-serif" font-size="11" fill="#166534">Complete</text><rect x="256" y="260" width="1008" height="44" fill="#ffffff" stroke="#e5e7eb" stroke-width="0.5"/><text x="272" y="286" font-family="Arial,sans-serif" font-size="13" fill="#111827">08 Mar 2026</text><text x="382" y="286" font-family="Arial,sans-serif" font-size="13" fill="#111827">Field 2C</text><text x="522" y="286" font-family="Arial,sans-serif" font-size="13" fill="#111827">Winter Barley</text><text x="652" y="286" font-family="Arial,sans-serif" font-size="13" fill="#111827">Bravo 500</text><text x="852" y="286" font-family="Arial,sans-serif" font-size="13" fill="#111827">Septoria</text><text x="1002" y="286" font-family="Arial,sans-serif" font-size="13" fill="#111827">1.0</text><text x="1102" y="286" font-family="Arial,sans-serif" font-size="13" fill="#111827">M. Evans</text><rect x="1212" y="272" width="68" height="20" rx="10" fill="#dcfce7" opacity="0.2"/><text x="1218" y="286" font-family="Arial,sans-serif" font-size="11" fill="#166534">Complete</text><rect x="256" y="304" width="1008" height="44" fill="#f9fafb" stroke="#e5e7eb" stroke-width="0.5"/><text x="272" y="330" font-family="Arial,sans-serif" font-size="13" fill="#111827">06 Mar 2026</text><text x="382" y="330" font-family="Arial,sans-serif" font-size="13" fill="#111827">Field 11B</text><text x="522" y="330" font-family="Arial,sans-serif" font-size="13" fill="#111827">Sugar Beet</text><text x="652" y="330" font-family="Arial,sans-serif" font-size="13" fill="#111827">Betasana SC</text><text x="852" y="330" font-family="Arial,sans-serif" font-size="13" fill="#111827">Blackfly</text><text x="1002" y="330" font-family="Arial,sans-serif" font-size="13" fill="#111827">1.5</text><text x="1102" y="330" font-family="Arial,sans-serif" font-size="13" fill="#111827">M. Evans</text><rect x="1212" y="316" width="61" height="20" rx="10" fill="#fef3c7" opacity="0.2"/><text x="1218" y="330" font-family="Arial,sans-serif" font-size="11" fill="#92400e">Pending</text><rect x="256" y="348" width="1008" height="44" fill="#ffffff" stroke="#e5e7eb" stroke-width="0.5"/><text x="272" y="374" font-family="Arial,sans-serif" font-size="13" fill="#111827">04 Mar 2026</text><text x="382" y="374" font-family="Arial,sans-serif" font-size="13" fill="#111827">Field 6D</text><text x="522" y="374" font-family="Arial,sans-serif" font-size="13" fill="#111827">Winter Wheat</text><text x="652" y="374" font-family="Arial,sans-serif" font-size="13" fill="#111827">Opus Team</text><text x="852" y="374" font-family="Arial,sans-serif" font-size="13" fill="#111827">Yellow rust</text><text x="1002" y="374" font-family="Arial,sans-serif" font-size="13" fill="#111827">0.5</text><text x="1102" y="374" font-family="Arial,sans-serif" font-size="13" fill="#111827">J. Davies</text><rect x="1212" y="360" width="68" height="20" rx="10" fill="#dcfce7" opacity="0.2"/><text x="1218" y="374" font-family="Arial,sans-serif" font-size="11" fill="#166534">Complete</text><rect x="256" y="392" width="1008" height="44" fill="#f9fafb" stroke="#e5e7eb" stroke-width="0.5"/><text x="272" y="418" font-family="Arial,sans-serif" font-size="13" fill="#111827">01 Mar 2026</text><text x="382" y="418" font-family="Arial,sans-serif" font-size="13" fill="#111827">Field 3A</text><text x="522" y="418" font-family="Arial,sans-serif" font-size="13" fill="#111827">Oilseed Rape</text><text x="652" y="418" font-family="Arial,sans-serif" font-size="13" fill="#111827">Kerb Flo</text><text x="852" y="418" font-family="Arial,sans-serif" font-size="13" fill="#111827">Annual grasses</text><text x="1002" y="418" font-family="Arial,sans-serif" font-size="13" fill="#111827">2.5</text><text x="1102" y="418" font-family="Arial,sans-serif" font-size="13" fill="#111827">M. Evans</text><rect x="1212" y="404" width="68" height="20" rx="10" fill="#dcfce7" opacity="0.2"/><text x="1218" y="418" font-family="Arial,sans-serif" font-size="11" fill="#166534">Complete</text><rect x="256" y="436" width="1008" height="44" fill="#ffffff" stroke="#e5e7eb" stroke-width="0.5"/><text x="272" y="462" font-family="Arial,sans-serif" font-size="13" fill="#111827">26 Feb 2026</text><text x="382" y="462" font-family="Arial,sans-serif" font-size="13" fill="#111827">Field 9C</text><text x="522" y="462" font-family="Arial,sans-serif" font-size="13" fill="#111827">Winter Barley</text><text x="652" y="462" font-family="Arial,sans-serif" font-size="13" fill="#111827">Headland Relay P</text><text x="852" y="462" font-family="Arial,sans-serif" font-size="13" fill="#111827">Volunteers</text><text x="1002" y="462" font-family="Arial,sans-serif" font-size="13" fill="#111827">1.8</text><text x="1102" y="462" font-family="Arial,sans-serif" font-size="13" fill="#111827">J. Davies</text><rect x="1212" y="448" width="68" height="20" rx="10" fill="#dcfce7" opacity="0.2"/><text x="1218" y="462" font-family="Arial,sans-serif" font-size="11" fill="#166534">Complete</text><rect x="256" y="480" width="1008" height="44" fill="#f9fafb" stroke="#e5e7eb" stroke-width="0.5"/><text x="272" y="506" font-family="Arial,sans-serif" font-size="13" fill="#111827">24 Feb 2026</text><text x="382" y="506" font-family="Arial,sans-serif" font-size="13" fill="#111827">Field 1A</text><text x="522" y="506" font-family="Arial,sans-serif" font-size="13" fill="#111827">Winter Wheat</text><text x="652" y="506" font-family="Arial,sans-serif" font-size="13" fill="#111827">Tilt 250 EC</text><text x="852" y="506" font-family="Arial,sans-serif" font-size="13" fill="#111827">Brown rust</text><text x="1002" y="506" font-family="Arial,sans-serif" font-size="13" fill="#111827">0.5</text><text x="1102" y="506" font-family="Arial,sans-serif" font-size="13" fill="#111827">M. Evans</text><rect x="1212" y="492" width="68" height="20" rx="10" fill="#dcfce7" opacity="0.2"/><text x="1218" y="506" font-family="Arial,sans-serif" font-size="11" fill="#166534">Complete</text>

</svg>